HIERARCHY
ROOT Hips
{
	OFFSET	0.00	0.00	0.00
	CHANNELS 6 Xposition Yposition Zposition Zrotation Xrotation Yrotation
	JOINT LeftUpLeg
	{
		OFFSET	 0.126116	-0.014019	-0.065224
		CHANNELS 3 Zrotation Xrotation Yrotation
		JOINT LeftLeg
		{
			OFFSET	 0.000000	 0.000000	 0.569914
			CHANNELS 3 Zrotation Xrotation Yrotation
			JOINT LeftFoot
			{
				OFFSET	 0.000000	 0.000000	 0.544423
				CHANNELS 3 Zrotation Xrotation Yrotation
				JOINT LeftToeBase
				{
					OFFSET	 0.000000	 0.000000	 0.207117
					CHANNELS 3 Zrotation Xrotation Yrotation
					End Site
					{
						OFFSET	 0.000000	 0.000000	 0.207117
					}
				}
			}
		}
	}
	JOINT RightUpLeg
	{
		OFFSET	-0.124023	-0.008373	-0.065224
		CHANNELS 3 Zrotation Xrotation Yrotation
		JOINT RightLeg
		{
			OFFSET	 0.000000	 0.000000	 0.570047
			CHANNELS 3 Zrotation Xrotation Yrotation
			JOINT RightFoot
			{
				OFFSET	 0.000000	 0.000000	 0.544354
				CHANNELS 3 Zrotation Xrotation Yrotation
				JOINT RightToeBase
				{
					OFFSET	 0.000000	 0.000000	 0.207540
					CHANNELS 3 Zrotation Xrotation Yrotation
					End Site
					{
						OFFSET	 0.000000	 0.000000	 0.207540
					}
				}
			}
		}
	}
	JOINT Spine
	{
		OFFSET	 0.000184	-0.007763	 0.117403
		CHANNELS 3 Zrotation Xrotation Yrotation
		JOINT Spine1
		{
			OFFSET	 0.000000	 0.000000	 0.137269
			CHANNELS 3 Zrotation Xrotation Yrotation
			JOINT Spine2
			{
				OFFSET	 0.000000	 0.000000	 0.156879
				CHANNELS 3 Zrotation Xrotation Yrotation
				JOINT LeftShoulder
				{
					OFFSET	 0.080501	-0.002496	 0.160144
					CHANNELS 3 Zrotation Xrotation Yrotation
					JOINT LeftArm
					{
						OFFSET	 0.000000	 0.000000	 0.164363
						CHANNELS 3 Zrotation Xrotation Yrotation
						JOINT LeftForeArm
						{
							OFFSET	 0.000000	 0.000000	 0.364576
							CHANNELS 3 Zrotation Xrotation Yrotation
							JOINT LeftHand
							{
								OFFSET	 0.000000	 0.000000	 0.360812
								CHANNELS 3 Zrotation Xrotation Yrotation
								JOINT LeftHandIndex1
								{
									OFFSET	 0.000000	 0.000000	 0.086006
									CHANNELS 3 Zrotation Xrotation Yrotation
									JOINT LeftHandIndex2
									{
										OFFSET	 0.000000	 0.000000	 0.047237
										CHANNELS 3 Zrotation Xrotation Yrotation
										JOINT LeftHandIndex3
										{
											OFFSET	-0.004284	-0.000551	 0.038165
											CHANNELS 3 Zrotation Xrotation Yrotation
											End Site
											{
												OFFSET	-0.004284	-0.000551	 0.038165
											}
										}
									}
								}
							}
						}
					}
				}
				JOINT Neck
				{
					OFFSET	 0.000000	 0.000000	 0.176489
					CHANNELS 3 Zrotation Xrotation Yrotation
					JOINT Head
					{
						OFFSET	 0.000000	-0.001747	 0.077940
						CHANNELS 3 Zrotation Xrotation Yrotation
						End Site
						{
							OFFSET	 0.000000	-0.001747	 0.077940
						}
					}
				}
				JOINT RightShoulder
				{
					OFFSET	-0.080363	 0.000306	 0.159706
					CHANNELS 3 Zrotation Xrotation Yrotation
					JOINT RightArm
					{
						OFFSET	 0.000000	 0.000000	 0.164196
						CHANNELS 3 Zrotation Xrotation Yrotation
						JOINT RightForeArm
						{
							OFFSET	 0.000000	 0.000000	 0.365611
							CHANNELS 3 Zrotation Xrotation Yrotation
							JOINT RightHand
							{
								OFFSET	 0.000000	 0.000000	 0.360648
								CHANNELS 3 Zrotation Xrotation Yrotation
								JOINT RightHandIndex1
								{
									OFFSET	 0.000000	 0.000000	 0.069977
									CHANNELS 3 Zrotation Xrotation Yrotation
									JOINT RightHandIndex2
									{
										OFFSET	 0.000000	 0.000000	 0.052305
										CHANNELS 3 Zrotation Xrotation Yrotation
										JOINT RightHandIndex3
										{
											OFFSET	 0.009002	-0.000782	 0.042196
											CHANNELS 3 Zrotation Xrotation Yrotation
											End Site
											{
												OFFSET	 0.009002	-0.000782	 0.042196
											}
										}
									}
								}
							}
						}
					}
				}
			}
		}
	}
}
MOTION
Frames:    12
Frame Time: 0.03333334
-0.447988	-0.033131	 1.271489	-179.818400	-4.128121	 1.219236	 19.716530	 0.352735	 174.744400	-7.085500	-13.722640	-1.824252	-3.228746	 72.080270	-6.582417	-2.385833	 28.452760	 0.000004	 16.122950	 2.242975	 177.958200	 2.186091	-11.456610	 0.131786	 12.197950	 68.975660	 2.858951	 2.384659	 28.388700	-0.000001	-0.960852	 9.912521	-2.482622	 0.221999	-0.372814	 0.251867	 0.606245	-1.891123	 1.971427	-91.776210	 78.527400	-180.000000	-45.351810	 1.261901	 0.319925	 1.036928	-2.248963	-36.613850	 0.086470	-9.560985	-1.683810	-4.130319	 21.525730	 0.991547	-5.167930	 0.731704	 3.519349	-1.378229	 35.397820	-2.634230	-2.629512	 0.408862	 1.492915	-13.792750	-26.086800	-12.935850	 89.782120	 78.203830	 180.000000	 23.289230	-6.416948	-1.795492	-15.287580	-7.219712	 37.701310	-13.462870	 53.934360	 105.854500	 5.716227	 19.173190	-3.685159	 5.027444	 0.246877	-9.377972	-2.350882	 35.473990	 5.254307
-0.448280	-0.033303	 1.270762	-179.637600	-4.319240	 1.845370	 22.530990	-1.673509	 173.701100	-8.751060	-17.419170	-2.810339	-1.473683	 73.735500	-6.979164	-2.385833	 28.452760	 0.000004	 15.802730	 1.106880	 177.654300	 3.052669	-14.032330	 0.371067	 8.503939	 69.613630	 5.998543	 2.384659	 28.388700	-0.000001	-0.991847	 9.947677	-3.010292	 0.168910	 0.748971	-0.642223	 0.298864	-3.464267	 2.784142	-91.776170	 78.527350	 180.000000	-51.672400	 5.770490	 8.950294	-0.173323	-2.419859	-53.143220	-0.329482	-8.540005	-1.977357	-4.130319	 21.525730	 0.991547	-5.167930	 0.731704	 3.519349	-1.378229	 35.397820	-2.634230	-3.000731	 0.980708	 1.935839	-14.755960	-28.016200	-15.030220	 89.782050	 78.203820	-180.000000	 28.494160	-3.452379	-7.385256	-13.395270	-9.778012	 52.809340	-10.495140	 59.432460	 107.452100	 5.716227	 19.173190	-3.685159	 5.027444	 0.246877	-9.377972	-2.350882	 35.473990	 5.254307
-0.448840	-0.034223	 1.267797	-179.236300	-4.083958	 2.203102	 22.008640	-5.673597	 173.463700	-9.918483	-26.150040	-4.660635	-6.258279	 78.926980	-1.596033	-2.385833	 28.452760	 0.000004	 15.067850	-2.995647	 178.748800	 3.629321	-22.465510	 0.805334	 11.727410	 73.671920	 2.049652	 2.384659	 28.388700	-0.000001	-2.076400	 9.540942	-3.216770	-0.512615	 1.750881	-1.482433	 0.259960	-4.130403	 3.452826	-91.776160	 78.527400	 180.000000	-46.199390	 16.026460	 27.004290	-2.045318	-2.870087	-91.181070	-0.451920	-8.315010	-2.078807	-4.130319	 21.525730	 0.991547	-5.167930	 0.731704	 3.519349	-1.378229	 35.397820	-2.634230	-3.146517	 1.171721	 2.313677	-15.163240	-28.516450	-16.460480	 89.782110	 78.203890	 180.000000	 29.348130	 5.337366	-17.324490	-6.144670	-12.053730	 89.557360	 26.267650	 58.294460	 58.702990	 5.716227	 19.173190	-3.685159	 5.027444	 0.246877	-9.377972	-2.350882	 35.473990	 5.254307
-0.450264	-0.036228	 1.261989	-178.632800	-3.601684	 2.191132	 19.754200	-10.049040	 173.929200	-11.436480	-37.282960	-7.335551	-35.232550	 85.410980	 27.661130	-2.385833	 28.452760	 0.000004	 14.561660	-7.982454	-178.398300	 4.150527	-32.984100	 1.431344	 27.256720	 78.380270	-14.648290	 2.384659	 28.388700	-0.000001	-4.235617	 9.007813	-2.991264	-1.914389	 2.904649	-2.341182	 0.328474	-4.435848	 4.064126	-91.776180	 78.527360	-180.000000	-7.435630	 46.576350	 10.885550	-3.422231	-2.601304	-118.913900	-0.358670	-8.352514	-2.080806	-4.130319	 21.525730	 0.991547	-5.167930	 0.731704	 3.519349	-1.378229	 35.397820	-2.634230	-3.071842	 0.769984	 2.015105	-14.978700	-27.867950	-15.978970	 89.782210	 78.203920	 179.999900	 11.230810	 37.329620	-0.018324	-0.843071	-9.193445	 119.710500	 31.388640	 30.691860	 6.436716	 5.716227	 19.173190	-3.685159	 5.027444	 0.246877	-9.377972	-2.350882	 35.473990	 5.254307
-0.453546	-0.038616	 1.256224	-177.689700	-3.315372	 2.109801	 17.071830	-12.624500	 174.635900	-13.090780	-45.317690	-9.798289	-121.615800	 85.432160	 114.197000	-2.385833	 28.452760	 0.000004	 13.901610	-11.149550	-175.304200	 4.867002	-40.196870	 2.159939	 47.156090	 80.106990	-35.788890	 2.384659	 28.388700	-0.000001	-6.489219	 8.392315	-3.020138	-3.177989	 4.517833	-2.179290	 0.196876	-4.886400	 4.095436	-91.776150	 78.527400	-180.000000	 49.332570	 47.404150	-65.347350	-1.907960	-2.964274	-88.488080	-0.370377	-8.234118	-2.088734	-4.130319	 21.525730	 0.991547	-5.167930	 0.731704	 3.519349	-1.378229	 35.397820	-2.634230	-2.980345	-0.352697	 0.386569	-14.413710	-26.416930	-12.189190	 89.782170	 78.203870	 179.999900	-48.539900	 46.523250	 73.793240	-4.915324	-10.417300	 96.263710	-1.958004	 11.367260	-3.042239	 5.716227	 19.173190	-3.685159	 5.027444	 0.246877	-9.377972	-2.350882	 35.473990	 5.254307
-0.460024	-0.040788	 1.253983	-176.870100	-3.320197	 1.831512	 14.563450	-12.878750	 175.679600	-13.356590	-47.390980	-10.336280	-134.961700	 83.842570	 127.466000	-2.385833	 28.452760	 0.000004	 12.452280	-11.978420	-173.553600	 5.369048	-42.221790	 2.586928	 49.307050	 79.520390	-38.585290	 2.384659	 28.388700	-0.000001	-7.457384	 8.006552	-3.125539	-3.457093	 5.388764	-0.848502	-0.052231	-5.307838	 3.537818	-91.776210	 78.527380	-180.000000	 58.931950	 42.179530	-91.171770	-0.634994	-2.555521	-62.120520	-0.463202	-7.844076	-2.108699	-4.130319	 21.525730	 0.991547	-5.167930	 0.731704	 3.519349	-1.378229	 35.397820	-2.634230	-3.571770	 1.075696	 1.388231	-15.158430	-27.503270	-14.570130	 89.782160	 78.203920	 179.999900	-65.364510	 39.869470	 101.278100	-9.550736	-9.910506	 70.444570	-11.953220	-0.030563	 2.418705	 5.716227	 19.173190	-3.685159	 5.027444	 0.246877	-9.377972	-2.350882	 35.473990	 5.254307
-0.469347	-0.042670	 1.254487	-175.852300	-3.527741	 2.060988	 12.206400	-11.959860	 176.208800	-12.453310	-45.566410	-9.372059	-126.688400	 84.671710	 119.001000	-2.385833	 28.452760	 0.000004	 10.299680	-11.864770	-173.565400	 5.852475	-41.580670	 2.876657	 38.890560	 78.145790	-28.442690	 2.384659	 28.388700	-0.000001	-7.537618	 7.906981	-3.630502	-2.745365	 5.291803	 0.865185	-0.226240	-5.059869	 2.728369	-91.776160	 78.527420	 180.000000	 59.378700	 41.766010	-87.037990	-1.372591	-2.804313	-77.653020	-0.494845	-7.566095	-2.119770	-4.130319	 21.525730	 0.991547	-5.167930	 0.731704	 3.519349	-1.378229	 35.397820	-2.634230	-4.024271	 2.197175	 2.388384	-15.685350	-28.059830	-16.677130	 89.782010	 78.203850	-179.999900	-66.000180	 39.873690	 96.653570	-9.008686	-9.992112	 73.424640	-12.944840	-3.310759	 2.896147	 5.716227	 19.173190	-3.685159	 5.027444	 0.246877	-9.377972	-2.350882	 35.473990	 5.254307
-0.477256	-0.043376	 1.253530	-174.838500	-3.316617	 2.402849	 9.938612	-11.627370	 176.848700	-11.804290	-44.947990	-8.770715	-123.902600	 84.887180	 115.922000	-2.385833	 28.452760	 0.000004	 9.000606	-13.771740	-172.670700	 6.717941	-44.299110	 3.633519	 36.360270	 77.557520	-26.572270	 2.384659	 28.388700	-0.000001	-7.517833	 7.627845	-3.946026	-1.829414	 4.114420	 2.041460	-0.364699	-3.906776	 2.125682	-91.776210	 78.527400	-180.000000	 54.422050	 44.339400	-85.882710	-2.023452	-2.937852	-90.726510	-0.434406	-7.356484	-2.126898	-4.130319	 21.525730	 0.991547	-5.167930	 0.731704	 3.519349	-1.378229	 35.397820	-2.634230	-4.078343	 1.748267	 2.046700	-15.446600	-27.025610	-15.524630	 89.782010	 78.203820	-179.999900	-64.913690	 41.003480	 89.688740	-11.101410	-9.123485	 60.873150	-10.435460	-11.372500	 19.061340	 5.716227	 19.173190	-3.685159	 5.027444	 0.246877	-9.377972	-2.350882	 35.473990	 5.254307
-0.483794	-0.043484	 1.253370	-173.959600	-2.614964	 2.267071	 7.667021	-11.399120	 178.041300	-10.858390	-43.878570	-7.970140	-118.126800	 85.286450	 109.735800	-2.385833	 28.452760	 0.000004	 9.137368	-17.017350	-170.926300	 7.124434	-48.138880	 4.177939	 36.136380	 76.779750	-26.863450	 2.384659	 28.388700	-0.000001	-6.769801	 6.861010	-3.913576	-0.202302	 2.706367	 3.805380	-0.574017	-2.436339	 1.105528	-91.776180	 78.527400	-180.000000	 43.583420	 49.602520	-77.916730	-2.622591	-2.984248	-102.044100	-0.329625	-7.048182	-2.141027	-4.130319	 21.525730	 0.991547	-5.167930	 0.731704	 3.519349	-1.378229	 35.397820	-2.634230	-4.058607	 0.362512	 0.982503	-14.948750	-25.096010	-12.653430	 89.782020	 78.203870	-179.999900	-57.594320	 43.502000	 78.775310	-12.589650	-8.212513	 51.262070	-2.949562	-14.402120	 34.193270	 5.716227	 19.173190	-3.685159	 5.027444	 0.246877	-9.377972	-2.350882	 35.473990	 5.254307
-0.485203	-0.043139	 1.254953	-173.103900	-2.059906	 2.091592	 5.193718	-11.135430	 178.732000	-10.044610	-42.960690	-7.272370	-114.135400	 85.414140	 105.330500	-2.385833	 28.452760	 0.000004	 10.862360	-19.710590	-169.611500	 6.050156	-49.947760	 3.468596	 38.258690	 75.840300	-28.772540	 2.384659	 28.388700	-0.000001	-5.646096	 6.018313	-4.277822	 1.672896	 3.233924	 6.087101	-0.663558	-2.333583	-0.059123	-91.776220	 78.527380	-180.000000	 37.695030	 51.251590	-64.114600	-2.787804	-3.002774	-104.954800	-0.280260	-6.807346	-2.155583	-4.130319	 21.525730	 0.991547	-5.167930	 0.731704	 3.519349	-1.378229	 35.397820	-2.634230	-4.050645	-0.532214	 0.558498	-14.712740	-23.950120	-11.287740	 89.782160	 78.203870	 179.999900	-45.206970	 45.866800	 62.138080	-10.168730	-9.779169	 67.036600	 0.799307	-9.258910	 27.112220	 5.716227	 19.173190	-3.685159	 5.027444	 0.246877	-9.377972	-2.350882	 35.473990	 5.254307
-0.481055	-0.041368	 1.257782	-172.552100	-1.889695	 2.477980	 2.746893	-10.543550	 178.618500	-9.311357	-41.864290	-6.625099	-108.065800	 85.603770	 98.835740	-2.385833	 28.452760	 0.000004	 11.880220	-20.878080	-169.571800	 4.900520	-46.883270	 2.467043	 32.899600	 73.040500	-23.084710	 2.384659	 28.388700	-0.000001	-4.157394	 5.621057	-5.281417	 3.578163	 4.281995	 7.919400	-0.740852	-2.921211	-0.744096	-91.776110	 78.527360	 179.999900	 38.649060	 50.461570	-62.686370	-2.767310	-3.031060	-104.457900	-0.274899	-6.347346	-2.180979	-4.130319	 21.525730	 0.991547	-5.167930	 0.731704	 3.519349	-1.378229	 35.397820	-2.634230	-4.294109	 0.266910	 1.314277	-15.049620	-24.709560	-12.924790	 89.782150	 78.203900	 180.000000	-41.250820	 46.399300	 57.620380	-9.268998	-9.586081	 71.351300	 3.243356	-10.645120	 23.317750	 5.716227	 19.173190	-3.685159	 5.027444	 0.246877	-9.377972	-2.350882	 35.473990	 5.254307
-0.472995	-0.037495	 1.260990	-172.058300	-1.529703	 3.153102	-0.101438	-10.320200	 177.983400	-8.547390	-41.197800	-6.028341	-94.410690	 85.223820	 84.893170	-2.385833	 28.452760	 0.000004	 12.499810	-21.853780	-170.394000	 4.236845	-42.385910	 1.830445	 26.792660	 71.023280	-16.124610	 2.384659	 28.388700	-0.000001	-2.441798	 5.082163	-6.177306	 5.630019	 5.698157	 7.881455	-0.794338	-3.876694	-0.366910	-91.776200	 78.527380	-180.000000	 40.919260	 49.291980	-63.493720	-2.725392	-3.093450	-103.445200	-0.243942	-5.805367	-2.211064	-4.130319	 21.525730	 0.991547	-5.167930	 0.731704	 3.519349	-1.378229	 35.397820	-2.634230	-4.545547	 0.927354	 2.012895	-15.404060	-25.502360	-14.364280	 89.782150	 78.203890	 180.000000	-39.003190	 46.765720	 55.105650	-8.805188	-9.558321	 73.850410	 3.936534	-13.655850	 19.705850	 5.716227	 19.173190	-3.685159	 5.027444	 0.246877	-9.377972	-2.350882	 35.473990	 5.254307
